Coordinates
version=1
nRows=6
nColumns=36
inDegrees=yes

Units are S.I. units (second, meters, Newtons, ...)
If the header above contains a line with 'inDegrees', this indicates whether rotational values are in degrees (yes) or radians (no).

endheader
time	pelvis_tilt	pelvis_list	pelvis_rotation	pelvis_tx	pelvis_ty	pelvis_tz	hip_flexion_r	hip_adduction_r	hip_rotation_r	knee_angle_r	knee_angle_r_beta	ankle_angle_r	subtalar_angle_r	mtp_angle_r	hip_flexion_l	hip_adduction_l	hip_rotation_l	knee_angle_l	knee_angle_l_beta	ankle_angle_l	subtalar_angle_l	mtp_angle_l	lumbar_extension	lumbar_bending	lumbar_rotation	arm_flex_r	arm_add_r	arm_rot_r	elbow_flex_r	pro_sup_r	arm_flex_l	arm_add_l	arm_rot_l	elbow_flex_l	pro_sup_l
      0.37000000	     -4.98736827	     -0.29378483	      2.57994922	      0.32711412	      0.94790192	     -0.21538432	      4.14341369	      4.07252466	      0.67385605	     11.65534753	      0.20342419	     11.76647635	     -8.34744465	     -6.34337123	     29.74069867	      1.26577771	      1.10995279	     37.06654770	      0.64693330	     -2.63447636	    -18.48140578	     -6.34337123	     -8.40919284	      2.73657384	      1.50633613	      4.23215190	    -14.84618884	     10.17804602	     46.18482076	    106.35923216	    -11.15113246	     -8.42493106	      3.79636653	     32.93360001	     98.20579535
      0.38000000	     -4.82366673	     -0.26748441	      2.46806792	      0.33675765	      0.94732122	     -0.21455234	      3.08723400	      4.11289467	      0.50822889	     11.23984080	      0.19617223	     12.45051166	     -7.73207375	     -6.36445182	     29.76102284	      1.19439149	      0.77979117	     33.62383819	      0.58684668	     -3.27949484	    -18.46834160	     -6.36445182	     -8.69893242	      2.33447064	      1.94729697	      4.69383972	    -15.22015120	     10.78041120	     46.63378078	    106.32593745	    -11.17050061	     -8.30395655	      3.26458586	     32.67868527	     97.97992059
      0.39000000	     -4.78014317	     -0.35312309	      2.38853993	      0.34649846	      0.94634077	     -0.21383189	      2.15434539	      4.26113427	      0.31527078	     10.81409653	      0.18874159	     13.06996058	     -7.13289690	     -6.38904050	     29.92121382	      1.04547587	      0.55976556	     30.28025650	      0.52849017	     -3.76833441	    -18.08718858	     -6.38904050	     -8.79488135	      2.06002490	      2.30675571	      5.19226306	    -15.57983922	     11.28778626	     46.94130958	    106.27212172	    -11.31986897	     -8.24369592	      2.72975489	     32.50613281	     97.74580478
      0.40000000	     -4.86283118	     -0.55342574	      2.39564861	      0.35623595	      0.94501346	     -0.21314057	      1.32313848	      4.55613239	      0.36080199	     10.35757946	      0.18077386	     13.51969656	     -6.62157846	     -6.41016467	     30.19901776	      0.82491684	      0.47604114	     26.89780985	      0.46945534	     -3.98539550	    -17.13756717	     -6.41016467	     -8.71526736	      1.89258695	      2.60923790	      5.60098219	    -15.90818304	     11.68079220	     47.20190709	    106.24136066	    -11.46135441	     -8.13150587	      2.31530162	     32.39947135	     97.56254472
      0.41000000	     -5.01627144	     -0.79959012	      2.36506053	      0.36610230	      0.94343940	     -0.21246725	      0.54288338	      4.89886506	      0.44045244	      9.83738598	      0.17169478	     13.86159891	     -6.26391674	     -6.42183084	     30.55021167	      0.56533192	      0.45578521	     23.64971419	      0.41276538	     -4.10489521	    -15.87020721	     -6.42183084	     -8.55247578	      1.77487317	      2.96503236	      5.92349669	    -16.18596226	     11.95613763	     47.44946015	    106.24748990	    -11.60805075	     -8.03146701	      2.04420524	     32.28285327	     97.45280091
      0.42000000	     -4.79487377	     -0.95774542	      2.32986341	      0.37631260	      0.94223326	     -0.21177983	     -0.68621589	      5.12642283	      0.12747062	      9.27385122	      0.16185924	     14.57808864	     -5.25420199	     -6.48425363	     30.49389057	      0.25889105	     -0.14501921	     20.58635955	      0.35929976	     -3.14748425	    -12.77158764	     -6.48425363	     -8.80833419	      1.55265909	      3.11067028	      6.55021808	    -16.47191441	     12.77693013	     47.49498883	    106.13560299	    -11.85763289	     -7.86738335	      1.20251368	     32.30034177	     97.05963520
